<?xml version="1.0" encoding="us-ascii" standalone="no"?><svg xmlns="http://www.w3.org/2000/svg" xmlns:xlink="http://www.w3.org/1999/xlink" contentStyleType="text/css" height="399px" preserveAspectRatio="none" style="width:344px;height:399px;background:#FFFFFF;" version="1.1" viewBox="0 0 344 399" width="344px" zoomAndPan="magnify"><defs/><g><!--cluster cas_utilisation_directeur--><g id="cluster_cas_utilisation_directeur"><path d="M110.5,6 L285.5,6 A3.75,3.75 0 0 1 288,8.5 L295,29.6094 L334.5,29.6094 A2.5,2.5 0 0 1 337,32.1094 L337,389.5 A2.5,2.5 0 0 1 334.5,392 L110.5,392 A2.5,2.5 0 0 1 108,389.5 L108,8.5 A2.5,2.5 0 0 1 110.5,6 " fill="none" style="stroke:#000000;stroke-width:1.5;"/><line style="stroke:#000000;stroke-width:1.5;" x1="108" x2="295" y1="29.6094" y2="29.6094"/><text fill="#000000" font-family="sans-serif" font-size="14" font-weight="bold" lengthAdjust="spacing" textLength="174" x="112" y="22.5332">cas_utilisation_directeur</text></g><g id="elem_Gestion cat&#233;gorie"><ellipse cx="222.5785" cy="60.2157" fill="#F1F1F1" rx="79.0785" ry="18.2157" style="stroke:#181818;stroke-width:0.5;"/><text fill="#000000" font-family="sans-serif" font-size="14" lengthAdjust="spacing" textLength="112" x="165.1751" y="64.3395">Gestion cat&#233;gorie</text></g><g id="elem_Gestion pris de service"><ellipse cx="222.5017" cy="134.0003" fill="#F1F1F1" rx="93.0017" ry="21.0003" style="stroke:#181818;stroke-width:0.5;"/><text fill="#000000" font-family="sans-serif" font-size="14" lengthAdjust="spacing" textLength="145" x="150.0017" y="137.7289">Gestion pris de service</text></g><g id="elem_Gestion cong&#233;s"><ellipse cx="222.6111" cy="207.2222" fill="#F1F1F1" rx="74.1111" ry="17.2222" style="stroke:#181818;stroke-width:0.5;"/><text fill="#000000" font-family="sans-serif" font-size="14" lengthAdjust="spacing" textLength="99" x="170.1111" y="211.7388">Gestion cong&#233;s</text></g><g id="elem_Gestion absences"><ellipse cx="222.3789" cy="277.8758" fill="#F1F1F1" rx="79.8789" ry="18.3758" style="stroke:#181818;stroke-width:0.5;"/><text fill="#000000" font-family="sans-serif" font-size="14" lengthAdjust="spacing" textLength="114" x="164.3373" y="281.9024">Gestion absences</text></g><g id="elem_Gestion order de mission"><ellipse cx="222.7239" cy="354.1448" fill="#F1F1F1" rx="98.7239" ry="22.1448" style="stroke:#181818;stroke-width:0.5;"/><text fill="#000000" font-family="sans-serif" font-size="14" lengthAdjust="spacing" textLength="158" x="143.7239" y="357.8733">Gestion order de mission</text></g><!--entity directeur--><g id="elem_directeur"><ellipse cx="35" cy="176.5" fill="#F1F1F1" rx="8" ry="8" style="stroke:#181818;stroke-width:0.5;"/><path d="M35,184.5 L35,211.5 M22,192.5 L48,192.5 M35,211.5 L22,226.5 M35,211.5 L48,226.5 " fill="none" style="stroke:#181818;stroke-width:0.5;"/><text fill="#000000" font-family="sans-serif" font-size="14" lengthAdjust="spacing" textLength="58" x="6" y="242.5332">Directeur</text></g><!--link directeur to Gestion cat?gorie--><g id="link_directeur_Gestion cat&#233;gorie"><path d="M49.56,167.84 C59.85,143.58 76.32,113.61 100,95 C115.79,82.59 135.82,74.58 155.03,69.41 " fill="none" id="directeur-Gestion cat&#233;gorie" style="stroke:#181818;stroke-width:1.0;"/></g><!--link directeur to Gestion pris de service--><g id="link_directeur_Gestion pris de service"><path d="M64.07,190.08 C75.04,183.89 87.88,177.15 100,172 C119.73,163.62 141.95,156.13 161.95,150.07 " fill="none" id="directeur-Gestion pris de service" style="stroke:#181818;stroke-width:1.0;"/></g><!--link directeur to Gestion cong?s--><g id="link_directeur_Gestion cong&#233;s"><path d="M64.17,207 C86.47,207 118.65,207 148.11,207 " fill="none" id="directeur-Gestion cong&#233;s" style="stroke:#181818;stroke-width:1.0;"/></g><!--link directeur to Gestion absences--><g id="link_directeur_Gestion absences"><path d="M64.11,223.44 C75.08,229.45 87.91,236 100,241 C121.91,250.06 146.84,258.03 168.39,264.23 " fill="none" id="directeur-Gestion absences" style="stroke:#181818;stroke-width:1.0;"/></g><!--link directeur to Gestion order de mission--><g id="link_directeur_Gestion order de mission"><path d="M51.16,246.21 C61.74,268.89 77.94,296.35 100,314 C114.13,325.31 131.58,333.47 148.8,339.34 " fill="none" id="directeur-Gestion order de mission" style="stroke:#181818;stroke-width:1.0;"/></g><!--SRC=[VSsn3S9030NGtbEu94MsG6ACo3Zci0Yvo7Pe40DbZYp67K9G9QM_tzSVv18O6KtJDR1N4mxD8m0GHpOyVXAP3Sc_xt80JCGtIe9CtisXWphLNlSZ-0J0VmFR5WydyOfAATObPLDfDiraMWO5NUoXl0CvZsbTV1lGsMLasH7PUh4wTbVt4ZG0BqHu0m00]--></g></svg>