<?xml version="1.0" encoding="us-ascii" standalone="no"?><svg xmlns="http://www.w3.org/2000/svg" xmlns:xlink="http://www.w3.org/1999/xlink" contentStyleType="text/css" height="855px" preserveAspectRatio="none" style="width:1019px;height:855px;background:#FFFFFF;" version="1.1" viewBox="0 0 1019 855" width="1019px" zoomAndPan="magnify"><defs/><g><!--cluster pkg_gestion_personnel.gestion_OrderDesMissions--><g id="cluster_pkg_gestion_personnel.gestion_OrderDesMissions"><path d="M202.5,6 L566.5,6 A3.75,3.75 0 0 1 569,8.5 L576,29.6094 L1009.5,29.6094 A2.5,2.5 0 0 1 1012,32.1094 L1012,845.5 A2.5,2.5 0 0 1 1009.5,848 L202.5,848 A2.5,2.5 0 0 1 200,845.5 L200,8.5 A2.5,2.5 0 0 1 202.5,6 " fill="none" style="stroke:#000000;stroke-width:1.5;"/><line style="stroke:#000000;stroke-width:1.5;" x1="200" x2="576" y1="29.6094" y2="29.6094"/><text fill="#000000" font-family="sans-serif" font-size="14" font-weight="bold" lengthAdjust="spacing" textLength="363" x="204" y="22.5332">pkg_gestion_personnel.gestion_OrderDesMissions</text></g><g id="elem_Naviguer par &#233;tablissement"><ellipse cx="335.4905" cy="104.8981" fill="#F1F1F1" rx="104.9905" ry="23.3981" style="stroke:#181818;stroke-width:0.5;"/><text fill="#000000" font-family="sans-serif" font-size="14" lengthAdjust="spacing" textLength="172" x="249.4905" y="108.6266">Naviguer par &#233;tablissement</text></g><g id="elem_Gestion des Order Des Missions"><ellipse cx="335.6279" cy="360.8256" fill="#F1F1F1" rx="119.6279" ry="26.3256" style="stroke:#181818;stroke-width:0.5;"/><text fill="#000000" font-family="sans-serif" font-size="14" lengthAdjust="spacing" textLength="204" x="233.6279" y="364.5541">Gestion des Order Des Missions</text></g><g id="elem_Imprimer d&#233;cision des order des missions"><ellipse cx="775.9478" cy="74.0896" fill="#F1F1F1" rx="145.9478" ry="31.5896" style="stroke:#181818;stroke-width:0.5;"/><text fill="#000000" font-family="sans-serif" font-size="14" lengthAdjust="spacing" textLength="260" x="645.9478" y="77.8181">Imprimer d&#233;cision des order des missions</text></g><g id="elem_Filtrer par &#233;tat de mission [Actuelles,Pr&#233;c&#233;dentes, Prochaines]"><ellipse cx="776.2301" cy="614.946" fill="#F1F1F1" rx="210.2301" ry="44.446" style="stroke:#181818;stroke-width:0.5;"/><text fill="#000000" font-family="sans-serif" font-size="14" lengthAdjust="spacing" textLength="393" x="579.7301" y="618.6745">Filtrer par &#233;tat de mission [Actuelles,Pr&#233;c&#233;dentes, Prochaines]</text></g><g id="elem_Exporter par &#233;tat de mission [Actuelles,Pr&#233;c&#233;dentes, Prochaines] "><ellipse cx="776.0122" cy="488.9024" fill="#F1F1F1" rx="220.0122" ry="46.4024" style="stroke:#181818;stroke-width:0.5;"/><text fill="#000000" font-family="sans-serif" font-size="14" lengthAdjust="spacing" textLength="409" x="569.5122" y="492.631">Exporter par &#233;tat de mission [Actuelles,Pr&#233;c&#233;dentes, Prochaines]</text></g><g id="elem_Importer les missions"><ellipse cx="775.8923" cy="386.8785" fill="#F1F1F1" rx="87.3923" ry="19.8785" style="stroke:#181818;stroke-width:0.5;"/><text fill="#000000" font-family="sans-serif" font-size="14" lengthAdjust="spacing" textLength="132" x="709.8923" y="390.607">Importer les missions</text></g><g id="elem_Consulter d&#233;tails des missions"><ellipse cx="776.1359" cy="807.1272" fill="#F1F1F1" rx="113.6359" ry="25.1272" style="stroke:#181818;stroke-width:0.5;"/><text fill="#000000" font-family="sans-serif" font-size="14" lengthAdjust="spacing" textLength="191" x="680.6359" y="810.8557">Consulter d&#233;tails des missions</text></g><g id="elem_Filtrer par date"><ellipse cx="775.7859" cy="711.8572" fill="#F1F1F1" rx="72.2859" ry="16.8572" style="stroke:#181818;stroke-width:0.5;"/><text fill="#000000" font-family="sans-serif" font-size="14" lengthAdjust="spacing" textLength="94" x="725.7859" y="716.3738">Filtrer par date</text></g><g id="elem_Ajouter les missions"><ellipse cx="775.9267" cy="311.7853" fill="#F1F1F1" rx="84.4267" ry="19.2853" style="stroke:#181818;stroke-width:0.5;"/><text fill="#000000" font-family="sans-serif" font-size="14" lengthAdjust="spacing" textLength="125" x="713.4267" y="315.5139">Ajouter les missions</text></g><g id="elem_Modifier les missions"><ellipse cx="776.0408" cy="238.2082" fill="#F1F1F1" rx="86.5408" ry="19.7082" style="stroke:#181818;stroke-width:0.5;"/><text fill="#000000" font-family="sans-serif" font-size="14" lengthAdjust="spacing" textLength="130" x="711.0408" y="241.9367">Modifier les missions</text></g><g id="elem_supprimer les missions"><ellipse cx="776.1309" cy="161.8262" fill="#F1F1F1" rx="92.1309" ry="20.8262" style="stroke:#181818;stroke-width:0.5;"/><text fill="#000000" font-family="sans-serif" font-size="14" lengthAdjust="spacing" textLength="143" x="704.6309" y="165.5547">supprimer les missions</text></g><!--entity directeur--><g id="elem_directeur"><ellipse cx="79.5" cy="129.5" fill="#F1F1F1" rx="8" ry="8" style="stroke:#181818;stroke-width:0.5;"/><path d="M79.5,137.5 L79.5,164.5 M66.5,145.5 L92.5,145.5 M79.5,164.5 L66.5,179.5 M79.5,164.5 L92.5,179.5 " fill="none" style="stroke:#181818;stroke-width:0.5;"/><text fill="#000000" font-family="sans-serif" font-size="14" lengthAdjust="spacing" textLength="58" x="50.5" y="195.5332">Directeur</text></g><!--entity responsableFormation--><g id="elem_responsableFormation"><ellipse cx="79.5" cy="330.5" fill="#F1F1F1" rx="8" ry="8" style="stroke:#181818;stroke-width:0.5;"/><path d="M79.5,338.5 L79.5,365.5 M66.5,346.5 L92.5,346.5 M79.5,365.5 L66.5,380.5 M79.5,365.5 L92.5,380.5 " fill="none" style="stroke:#181818;stroke-width:0.5;"/><text fill="#000000" font-family="sans-serif" font-size="14" lengthAdjust="spacing" textLength="147" x="6" y="396.5332">ResponsableFormation</text></g><!--link directeur to Naviguer par ?tablissement--><g id="link_directeur_Naviguer par &#233;tablissement"><path d="M108.65,153.9 C144.75,146.09 208.74,132.23 259.42,121.26 " fill="none" id="directeur-Naviguer par &#233;tablissement" style="stroke:#181818;stroke-width:1.0;"/></g><!--link directeur to Gestion des Order Des Missions--><g id="link_directeur_Gestion des Order Des Missions"><path d="M108.65,182.28 C156.19,219.89 252.06,295.76 302.23,335.47 " fill="none" id="directeur-Gestion des Order Des Missions" style="stroke:#181818;stroke-width:1.0;"/></g><!--reverse link Naviguer par ?tablissement to Imprimer d?cision des order des missions--><g id="link_Naviguer par &#233;tablissement_Imprimer d&#233;cision des order des missions"><path d="M441.7151,97.5575 C501.2151,93.3575 571.77,88.37 637.09,83.75 " fill="none" id="Naviguer par &#233;tablissement-backto-Imprimer d&#233;cision des order des missions" style="stroke:#181818;stroke-width:1.0;stroke-dasharray:7.0,7.0;"/><polygon fill="#181818" points="435.73,97.98,444.9893,101.3364,440.7176,97.6279,444.426,93.3562,435.73,97.98" style="stroke:#181818;stroke-width:1.0;"/><text fill="#000000" font-family="sans-serif" font-size="13" lengthAdjust="spacing" textLength="39" x="486" y="89.4951">extend</text></g><!--reverse link Gestion des Order Des Missions to Filtrer par ?tat de mission [Actuelles,Pr?c?dentes, Prochaines]--><g id="link_Gestion des Order Des Missions_Filtrer par &#233;tat de mission [Actuelles,Pr&#233;c&#233;dentes, Prochaines]"><path d="M363.0992,391.6039 C400.1392,432.8439 473.9,508.44 556,553 C578.4,565.16 603.42,575.13 628.31,583.23 " fill="none" id="Gestion des Order Des Missions-backto-Filtrer par &#233;tat de mission [Actuelles,Pr&#233;c&#233;dentes, Prochaines]" style="stroke:#181818;stroke-width:1.0;stroke-dasharray:7.0,7.0;"/><polygon fill="#181818" points="359.09,387.14,362.128,396.5086,362.431,390.8599,368.0798,391.163,359.09,387.14" style="stroke:#181818;stroke-width:1.0;"/><text fill="#000000" font-family="sans-serif" font-size="13" lengthAdjust="spacing" textLength="39" x="486" y="506.4951">extend</text></g><!--reverse link Gestion des Order Des Missions to Exporter par ?tat de mission [Actuelles,Pr?c?dentes, Prochaines] --><g id="link_Gestion des Order Des Missions_Exporter par &#233;tat de mission [Actuelles,Pr&#233;c&#233;dentes, Prochaines] "><path d="M410.8787,384.4339 C435.9587,392.2439 458.86,399.26 485,407 C536.04,422.12 592.33,438.17 641.62,452.03 " fill="none" id="Gestion des Order Des Missions-backto-Exporter par &#233;tat de mission [Actuelles,Pr&#233;c&#233;dentes, Prochaines] " style="stroke:#181818;stroke-width:1.0;stroke-dasharray:7.0,7.0;"/><polygon fill="#181818" points="405.15,382.65,412.5537,389.145,409.9239,384.1366,414.9323,381.5068,405.15,382.65" style="stroke:#181818;stroke-width:1.0;"/><text fill="#000000" font-family="sans-serif" font-size="13" lengthAdjust="spacing" textLength="39" x="486" y="403.4951">extend</text></g><!--reverse link Gestion des Order Des Missions to Importer les missions--><g id="link_Gestion des Order Des Missions_Importer les missions"><path d="M445.818,374.5693 C460.948,376.1393 470.38,376.94 485,378 C553.2,382.95 630.62,385.18 688.3,386.19 " fill="none" id="Gestion des Order Des Missions-backto-Importer les missions" style="stroke:#181818;stroke-width:1.0;stroke-dasharray:7.0,7.0;"/><polygon fill="#181818" points="439.85,373.95,448.3891,378.8576,444.8233,374.4661,449.2148,370.9003,439.85,373.95" style="stroke:#181818;stroke-width:1.0;"/><text fill="#000000" font-family="sans-serif" font-size="13" lengthAdjust="spacing" textLength="39" x="486" y="374.4951">extend</text></g><!--reverse link Gestion des Order Des Missions to Consulter d?tails des missions--><g id="link_Gestion des Order Des Missions_Consulter d&#233;tails des missions"><path d="M345.5999,393.4112 C366.4299,463.4712 430.69,648.32 556,746 C589.77,772.33 634.26,787.3 674.31,795.8 " fill="none" id="Gestion des Order Des Missions-backto-Consulter d&#233;tails des missions" style="stroke:#181818;stroke-width:1.0;stroke-dasharray:7.0,7.0;"/><polygon fill="#181818" points="343.89,387.66,342.6208,397.4267,345.3149,392.4527,350.289,395.1468,343.89,387.66" style="stroke:#181818;stroke-width:1.0;"/><text fill="#000000" font-family="sans-serif" font-size="13" lengthAdjust="spacing" textLength="39" x="486" y="675.4951">extend</text></g><!--reverse link Consulter d?tails des missions to Filtrer par date--><g id="link_Consulter d&#233;tails des missions_Filtrer par date"><path d="M776,775.54 C776,758.94 776,743.73 776,729.12 " fill="none" id="Consulter d&#233;tails des missions-backto-Filtrer par date" style="stroke:#181818;stroke-width:1.0;stroke-dasharray:7.0,7.0;"/><polygon fill="#181818" points="776,781.54,780,772.54,776,776.54,772,772.54,776,781.54" style="stroke:#181818;stroke-width:1.0;"/><text fill="#000000" font-family="sans-serif" font-size="13" lengthAdjust="spacing" textLength="39" x="744.5" y="760.9951">extend</text></g><!--reverse link Gestion des Order Des Missions to Ajouter les missions--><g id="link_Gestion des Order Des Missions_Ajouter les missions"><path d="M448.6129,348.4736 C528.0729,339.5936 628.87,328.33 699.7,320.41 " fill="none" id="Gestion des Order Des Missions-backto-Ajouter les missions" style="stroke:#181818;stroke-width:1.0;stroke-dasharray:7.0,7.0;"/><polygon fill="#181818" points="442.65,349.14,452.0386,352.1157,447.6191,348.5847,451.1501,344.1652,442.65,349.14" style="stroke:#181818;stroke-width:1.0;"/><text fill="#000000" font-family="sans-serif" font-size="13" lengthAdjust="spacing" textLength="39" x="486" y="337.4951">extend</text></g><!--reverse link Gestion des Order Des Missions to Modifier les missions--><g id="link_Gestion des Order Des Missions_Modifier les missions"><path d="M393.7319,334.8035 C437.5719,315.5135 497.04,291.34 556,275 C602.73,262.05 656.39,252.89 698.9,246.93 " fill="none" id="Gestion des Order Des Missions-backto-Modifier les missions" style="stroke:#181818;stroke-width:1.0;stroke-dasharray:7.0,7.0;"/><polygon fill="#181818" points="388.24,337.22,398.0888,337.2565,392.8166,335.2063,394.8668,329.934,388.24,337.22" style="stroke:#181818;stroke-width:1.0;"/><text fill="#000000" font-family="sans-serif" font-size="13" lengthAdjust="spacing" textLength="39" x="486" y="281.4951">extend</text></g><!--reverse link Gestion des Order Des Missions to supprimer les missions--><g id="link_Gestion des Order Des Missions_supprimer les missions"><path d="M367.7797,330.8805 C406.7997,294.7005 478.57,234.02 556,201 C597.56,183.28 646.88,173.61 688.18,168.33 " fill="none" id="Gestion des Order Des Missions-backto-supprimer les missions" style="stroke:#181818;stroke-width:1.0;stroke-dasharray:7.0,7.0;"/><polygon fill="#181818" points="363.38,334.96,372.6993,331.7739,367.0464,331.5604,367.2599,325.9076,363.38,334.96" style="stroke:#181818;stroke-width:1.0;"/><text fill="#000000" font-family="sans-serif" font-size="13" lengthAdjust="spacing" textLength="39" x="486" y="213.4951">extend</text></g><!--link responsableFormation to Gestion des Order Des Missions--><g id="link_responsableFormation_Gestion des Order Des Missions"><path d="M153.29,361 C172.78,361 194.38,361 215.67,361 " fill="none" id="responsableFormation-Gestion des Order Des Missions" style="stroke:#181818;stroke-width:1.0;"/></g><!--SRC=[hPF1JW8n443l_Oe99qY43p1SY8ZnW1Alnf2w7PPAjsrcPWs9yOFu3dxCxYvhZ44mm9xQwVIzQMVhS24W0SZcIm5Z2JEnmIkbCma4upg09O7ctMgQx1QVa6Fmh5yTJW8LkjfOvT6Uk59HPokT8tJYAf_do5Lq7f4uU8zkq4OUoI2DaQUMESsv0nzAGVg-xT3lG_T1lzkyH8Ae2RORIRAq0GlqqjkJVjVGmI13RO2aWDRHQmm7eJ0S3A1xNqIoHSemsqrckKM66bcDYXO9ru1hGMyQz9426lh4Eg4V-jGGR8dmFCgaHEUGhsQKxDkDINMb6SmeP4jjFVBBIThRTGmaPtdX976wpKRiphsvcpGidJID4MqT7-p6qVJXhsuOBNXIOQEtK5xaXDDWxC9UWiHbtFt4Vw1grhv7_B-dzAc-0000]--></g></svg>