<?xml version="1.0" encoding="us-ascii" standalone="no"?><svg xmlns="http://www.w3.org/2000/svg" xmlns:xlink="http://www.w3.org/1999/xlink" contentStyleType="text/css" height="483px" preserveAspectRatio="none" style="width:1003px;height:483px;background:#FFFFFF;" version="1.1" viewBox="0 0 1003 483" width="1003px" zoomAndPan="magnify"><defs/><g><!--cluster pkg_gestion_personnel.gestion_cong?s--><g id="cluster_pkg_gestion_personnel.gestion_cong&#233;s"><path d="M202.5,6 L487.5,6 A3.75,3.75 0 0 1 490,8.5 L497,29.6094 L993.5,29.6094 A2.5,2.5 0 0 1 996,32.1094 L996,473.5 A2.5,2.5 0 0 1 993.5,476 L202.5,476 A2.5,2.5 0 0 1 200,473.5 L200,8.5 A2.5,2.5 0 0 1 202.5,6 " fill="none" style="stroke:#000000;stroke-width:1.5;"/><line style="stroke:#000000;stroke-width:1.5;" x1="200" x2="497" y1="29.6094" y2="29.6094"/><text fill="#000000" font-family="sans-serif" font-size="14" font-weight="bold" lengthAdjust="spacing" textLength="284" x="204" y="22.5332">pkg_gestion_personnel.gestion_cong&#233;s</text></g><g id="elem_Naviguer par &#233;tablissement"><ellipse cx="320.9905" cy="156.8981" fill="#F1F1F1" rx="104.9905" ry="23.3981" style="stroke:#181818;stroke-width:0.5;"/><text fill="#000000" font-family="sans-serif" font-size="14" lengthAdjust="spacing" textLength="172" x="234.9905" y="160.6266">Naviguer par &#233;tablissement</text></g><g id="elem_Gestion des cong&#233;s"><ellipse cx="320.8478" cy="251.8696" fill="#F1F1F1" rx="84.8478" ry="19.3696" style="stroke:#181818;stroke-width:0.5;"/><text fill="#000000" font-family="sans-serif" font-size="14" lengthAdjust="spacing" textLength="126" x="257.8478" y="255.5981">Gestion des cong&#233;s</text></g><g id="elem_Imprimer d&#233;cision des cong&#233;s"><ellipse cx="646.304" cy="434.7608" fill="#F1F1F1" rx="111.804" ry="24.7608" style="stroke:#181818;stroke-width:0.5;"/><text fill="#000000" font-family="sans-serif" font-size="14" lengthAdjust="spacing" textLength="187" x="552.804" y="438.4893">Imprimer d&#233;cision des cong&#233;s</text></g><g id="elem_Importer cong&#233;s"><ellipse cx="646.7256" cy="356.9451" fill="#F1F1F1" rx="75.2256" ry="17.4451" style="stroke:#181818;stroke-width:0.5;"/><text fill="#000000" font-family="sans-serif" font-size="14" lengthAdjust="spacing" textLength="102" x="592.7256" y="361.4617">Importer cong&#233;s</text></g><g id="elem_Exporter cong&#233;s"><ellipse cx="646.6002" cy="287.02" fill="#F1F1F1" rx="75.6002" ry="17.52" style="stroke:#181818;stroke-width:0.5;"/><text fill="#000000" font-family="sans-serif" font-size="14" lengthAdjust="spacing" textLength="103" x="592.1002" y="291.5366">Exporter cong&#233;s</text></g><g id="elem_Filtrer par date"><ellipse cx="646.2859" cy="216.8572" fill="#F1F1F1" rx="72.2859" ry="16.8572" style="stroke:#181818;stroke-width:0.5;"/><text fill="#000000" font-family="sans-serif" font-size="14" lengthAdjust="spacing" textLength="94" x="596.2859" y="221.3738">Filtrer par date</text></g><g id="elem_Ajouter cong&#233;s"><ellipse cx="646.6476" cy="147.9295" fill="#F1F1F1" rx="72.6476" ry="16.9295" style="stroke:#181818;stroke-width:0.5;"/><text fill="#000000" font-family="sans-serif" font-size="14" lengthAdjust="spacing" textLength="95" x="596.1476" y="152.4461">Ajouter cong&#233;s</text></g><g id="elem_Consulter historique des cong&#233;s"><ellipse cx="646.6279" cy="68.8256" fill="#F1F1F1" rx="119.6279" ry="26.3256" style="stroke:#181818;stroke-width:0.5;"/><text fill="#000000" font-family="sans-serif" font-size="14" lengthAdjust="spacing" textLength="204" x="544.6279" y="72.5541">Consulter historique des cong&#233;s</text></g><g id="elem_Modifier"><ellipse cx="923.4051" cy="128.97" fill="#F1F1F1" rx="46.9051" ry="15.47" style="stroke:#181818;stroke-width:0.5;"/><text fill="#000000" font-family="sans-serif" font-size="14" lengthAdjust="spacing" textLength="50" x="896.7227" y="133.1764">Modifier</text></g><g id="elem_supprimer"><ellipse cx="923.4744" cy="63.0553" fill="#F1F1F1" rx="56.4744" ry="15.5553" style="stroke:#181818;stroke-width:0.5;"/><text fill="#000000" font-family="sans-serif" font-size="14" lengthAdjust="spacing" textLength="63" x="888.9744" y="67.5719">supprimer</text></g><!--entity directeur--><g id="elem_directeur"><ellipse cx="79.5" cy="126.5" fill="#F1F1F1" rx="8" ry="8" style="stroke:#181818;stroke-width:0.5;"/><path d="M79.5,134.5 L79.5,161.5 M66.5,142.5 L92.5,142.5 M79.5,161.5 L66.5,176.5 M79.5,161.5 L92.5,176.5 " fill="none" style="stroke:#181818;stroke-width:0.5;"/><text fill="#000000" font-family="sans-serif" font-size="14" lengthAdjust="spacing" textLength="58" x="50.5" y="192.5332">Directeur</text></g><!--entity responsableFormation--><g id="elem_responsableFormation"><ellipse cx="79.5" cy="239.5" fill="#F1F1F1" rx="8" ry="8" style="stroke:#181818;stroke-width:0.5;"/><path d="M79.5,247.5 L79.5,274.5 M66.5,255.5 L92.5,255.5 M79.5,274.5 L66.5,289.5 M79.5,274.5 L92.5,289.5 " fill="none" style="stroke:#181818;stroke-width:0.5;"/><text fill="#000000" font-family="sans-serif" font-size="14" lengthAdjust="spacing" textLength="147" x="6" y="305.5332">ResponsableFormation</text></g><!--link directeur to Naviguer par ?tablissement--><g id="link_directeur_Naviguer par &#233;tablissement"><path d="M108.91,157 C135.49,157 176.85,157 215.94,157 " fill="none" id="directeur-Naviguer par &#233;tablissement" style="stroke:#181818;stroke-width:1.0;"/></g><!--link directeur to Gestion des cong?s--><g id="link_directeur_Gestion des cong&#233;s"><path d="M108.91,168.27 C150.67,184.83 228.91,215.87 277.51,235.15 " fill="none" id="directeur-Gestion des cong&#233;s" style="stroke:#181818;stroke-width:1.0;"/></g><!--reverse link Gestion des cong?s to Imprimer d?cision des cong?s--><g id="link_Gestion des cong&#233;s_Imprimer d&#233;cision des cong&#233;s"><path d="M349.1531,274.7603 C385.4031,304.4303 455.29,358.14 527,392 C544.51,400.27 564.08,407.96 582.19,414.48 " fill="none" id="Gestion des cong&#233;s-backto-Imprimer d&#233;cision des cong&#233;s" style="stroke:#181818;stroke-width:1.0;stroke-dasharray:7.0,7.0;"/><polygon fill="#181818" points="344.51,270.96,348.9411,279.7558,348.3792,274.1269,354.0081,273.565,344.51,270.96" style="stroke:#181818;stroke-width:1.0;"/><text fill="#000000" font-family="sans-serif" font-size="13" lengthAdjust="spacing" textLength="39" x="457" y="352.4951">extend</text></g><!--reverse link Gestion des cong?s to Importer cong?s--><g id="link_Gestion des cong&#233;s_Importer cong&#233;s"><path d="M362.8409,272.2527 C389.4709,285.0127 421.69,299.38 456,311 C499.61,325.76 550.37,337.82 588.37,345.89 " fill="none" id="Gestion des cong&#233;s-backto-Importer cong&#233;s" style="stroke:#181818;stroke-width:1.0;stroke-dasharray:7.0,7.0;"/><polygon fill="#181818" points="357.43,269.66,363.8179,277.1563,361.9391,271.8206,367.2748,269.9418,357.43,269.66" style="stroke:#181818;stroke-width:1.0;"/><text fill="#000000" font-family="sans-serif" font-size="13" lengthAdjust="spacing" textLength="39" x="457" y="307.4951">extend</text></g><!--reverse link Gestion des cong?s to Exporter cong?s--><g id="link_Gestion des cong&#233;s_Exporter cong&#233;s"><path d="M383.8541,267.8588 C407.7241,273.4088 430.13,277.82 456,281 C493.73,285.64 535.99,287.32 571.01,287.76 " fill="none" id="Gestion des cong&#233;s-backto-Exporter cong&#233;s" style="stroke:#181818;stroke-width:1.0;stroke-dasharray:7.0,7.0;"/><polygon fill="#181818" points="378.01,266.5,385.8703,272.4343,382.8801,267.6323,387.682,264.6421,378.01,266.5" style="stroke:#181818;stroke-width:1.0;"/><text fill="#000000" font-family="sans-serif" font-size="13" lengthAdjust="spacing" textLength="39" x="457" y="277.4951">extend</text></g><!--reverse link Gestion des cong?s to Filtrer par date--><g id="link_Gestion des cong&#233;s_Filtrer par date"><path d="M404.2252,243.1048 C459.6052,237.1148 527.79,229.73 580.4,224.04 " fill="none" id="Gestion des cong&#233;s-backto-Filtrer par date" style="stroke:#181818;stroke-width:1.0;stroke-dasharray:7.0,7.0;"/><polygon fill="#181818" points="398.26,243.75,407.638,246.759,403.231,243.2123,406.7777,238.8054,398.26,243.75" style="stroke:#181818;stroke-width:1.0;"/><text fill="#000000" font-family="sans-serif" font-size="13" lengthAdjust="spacing" textLength="39" x="457" y="230.4951">extend</text></g><!--reverse link Gestion des cong?s to Ajouter cong?s--><g id="link_Gestion des cong&#233;s_Ajouter cong&#233;s"><path d="M373.4476,233.6421 C414.8476,219.0221 471.92,199.29 527,182 C550.48,174.63 576.78,167.02 598.63,160.87 " fill="none" id="Gestion des cong&#233;s-backto-Ajouter cong&#233;s" style="stroke:#181818;stroke-width:1.0;stroke-dasharray:7.0,7.0;"/><polygon fill="#181818" points="367.79,235.64,377.6083,236.4148,372.5047,233.9751,374.9444,228.8714,367.79,235.64" style="stroke:#181818;stroke-width:1.0;"/><text fill="#000000" font-family="sans-serif" font-size="13" lengthAdjust="spacing" textLength="39" x="457" y="189.4951">extend</text></g><!--reverse link Gestion des cong?s to Consulter historique des cong?s--><g id="link_Gestion des cong&#233;s_Consulter historique des cong&#233;s"><path d="M367.7168,232.2608 C387.7768,222.8008 406.42,212.59 426,198 C441.37,186.54 441.66,179.73 456,167 C485.65,140.68 492.26,132.11 527,113 C542.58,104.43 560.16,96.88 576.92,90.56 " fill="none" id="Gestion des cong&#233;s-backto-Consulter historique des cong&#233;s" style="stroke:#181818;stroke-width:1.0;stroke-dasharray:7.0,7.0;"/><polygon fill="#181818" points="362.29,234.82,372.1364,234.5991,366.8124,232.6873,368.7241,227.3633,362.29,234.82" style="stroke:#181818;stroke-width:1.0;"/><text fill="#000000" font-family="sans-serif" font-size="13" lengthAdjust="spacing" textLength="39" x="457" y="128.4951">extend</text></g><!--reverse link Consulter historique des cong?s to Modifier--><g id="link_Consulter historique des cong&#233;s_Modifier"><path d="M738.1122,88.7687 C788.7722,99.8187 844.83,112.05 883.98,120.59 " fill="none" id="Consulter historique des cong&#233;s-backto-Modifier" style="stroke:#181818;stroke-width:1.0;stroke-dasharray:7.0,7.0;"/><polygon fill="#181818" points="732.25,87.49,740.1908,93.3161,737.1351,88.5556,741.8957,85.4999,732.25,87.49" style="stroke:#181818;stroke-width:1.0;"/><text fill="#000000" font-family="sans-serif" font-size="13" lengthAdjust="spacing" textLength="39" x="797" y="99.4951">extend</text></g><!--reverse link Consulter historique des cong?s to supprimer--><g id="link_Consulter historique des cong&#233;s_supprimer"><path d="M771.7186,66.2889 C806.9486,65.5189 837.9,64.85 867.08,64.21 " fill="none" id="Consulter historique des cong&#233;s-backto-supprimer" style="stroke:#181818;stroke-width:1.0;stroke-dasharray:7.0,7.0;"/><polygon fill="#181818" points="765.72,66.42,774.8053,70.2224,770.7188,66.3107,774.6304,62.2243,765.72,66.42" style="stroke:#181818;stroke-width:1.0;"/><text fill="#000000" font-family="sans-serif" font-size="13" lengthAdjust="spacing" textLength="39" x="797" y="61.4951">extend</text></g><!--link responsableFormation to Gestion des cong?s--><g id="link_responsableFormation_Gestion des cong&#233;s"><path d="M153.01,264.55 C180.41,262.49 211.73,260.14 239.8,258.03 " fill="none" id="responsableFormation-Gestion des cong&#233;s" style="stroke:#181818;stroke-width:1.0;"/></g><!--SRC=[dP91JWCn34NtEONLLLbq3e3O8A281IouG1KcRcgQIOATe4g80yqvvc9asa4WTQ0mKZQn__jVikrmdI05OBAR18OOwqJ1AwNh51YkzmNC35g6RlaCpKUK6Bpe9uVBm8tkmLx78tMbegwtsYBCujQkB4fVNKLa2TwZgpuhTV2sQsK6Rqh1LoGi5Z1_qAzaCp94pT2rgIIG23ReqzcH-FPW20O51jDULDve2owg2kPtJMHgIeBfsfhaI7GEk4lepKcNmAcu_9ExsKtZbkGI3sCnEk5VkSlda2V4NPNbPjU36v9o2FIIyUSndLRlJU-3eJKXJu8bnyFUlj457pl4Ns_ZNNq0]--></g></svg>