<?xml version="1.0" encoding="us-ascii" standalone="no"?><svg xmlns="http://www.w3.org/2000/svg" xmlns:xlink="http://www.w3.org/1999/xlink" contentStyleType="text/css" height="580px" preserveAspectRatio="none" style="width:896px;height:580px;background:#FFFFFF;" version="1.1" viewBox="0 0 896 580" width="896px" zoomAndPan="magnify"><defs/><g><!--cluster gestion_personnel.pkg_Absences--><g id="cluster_gestion_personnel.pkg_Absences"><path d="M202.5,6 L443.5,6 A3.75,3.75 0 0 1 446,8.5 L453,29.6094 L886.5,29.6094 A2.5,2.5 0 0 1 889,32.1094 L889,570.5 A2.5,2.5 0 0 1 886.5,573 L202.5,573 A2.5,2.5 0 0 1 200,570.5 L200,8.5 A2.5,2.5 0 0 1 202.5,6 " fill="none" style="stroke:#000000;stroke-width:1.5;"/><line style="stroke:#000000;stroke-width:1.5;" x1="200" x2="453" y1="29.6094" y2="29.6094"/><text fill="#000000" font-family="sans-serif" font-size="14" font-weight="bold" lengthAdjust="spacing" textLength="240" x="204" y="22.5332">gestion_personnel.pkg_Absences</text></g><g id="elem_Naviguer par &#233;tablissement"><ellipse cx="320.9905" cy="212.8981" fill="#F1F1F1" rx="104.9905" ry="23.3981" style="stroke:#181818;stroke-width:0.5;"/><text fill="#000000" font-family="sans-serif" font-size="14" lengthAdjust="spacing" textLength="172" x="234.9905" y="216.6266">Naviguer par &#233;tablissement</text></g><g id="elem_List des absences"><ellipse cx="320.8789" cy="307.8758" fill="#F1F1F1" rx="79.8789" ry="18.3758" style="stroke:#181818;stroke-width:0.5;"/><text fill="#000000" font-family="sans-serif" font-size="14" lengthAdjust="spacing" textLength="114" x="262.8373" y="311.9024">List des absences</text></g><g id="elem_Imprimer absentisment"><ellipse cx="700.1965" cy="536.2393" fill="#F1F1F1" rx="91.6965" ry="20.7393" style="stroke:#181818;stroke-width:0.5;"/><text fill="#000000" font-family="sans-serif" font-size="14" lengthAdjust="spacing" textLength="142" x="629.1965" y="539.9678">Imprimer absentisment</text></g><g id="elem_importer des absences"><ellipse cx="700.066" cy="458.9132" fill="#F1F1F1" rx="92.566" ry="20.9132" style="stroke:#181818;stroke-width:0.5;"/><text fill="#000000" font-family="sans-serif" font-size="14" lengthAdjust="spacing" textLength="144" x="628.066" y="462.6417">importer des absences</text></g><g id="elem_Exporter des absences"><ellipse cx="700.0017" cy="382.0003" fill="#F1F1F1" rx="93.0017" ry="21.0003" style="stroke:#181818;stroke-width:0.5;"/><text fill="#000000" font-family="sans-serif" font-size="14" lengthAdjust="spacing" textLength="145" x="627.5017" y="385.7289">Exporter des absences</text></g><g id="elem_Filter par ann&#233;e"><ellipse cx="699.8525" cy="307.8705" fill="#F1F1F1" rx="74.8525" ry="17.3705" style="stroke:#181818;stroke-width:0.5;"/><text fill="#000000" font-family="sans-serif" font-size="14" lengthAdjust="spacing" textLength="101" x="646.3525" y="312.3871">Filter par ann&#233;e</text></g><g id="elem_Filter par motif"><ellipse cx="700.2113" cy="239.1423" fill="#F1F1F1" rx="71.2113" ry="16.6423" style="stroke:#181818;stroke-width:0.5;"/><text fill="#000000" font-family="sans-serif" font-size="14" lengthAdjust="spacing" textLength="91" x="651.7113" y="243.6589">Filter par motif</text></g><g id="elem_Ajouter absences"><ellipse cx="699.7877" cy="169.0575" fill="#F1F1F1" rx="78.2877" ry="18.0575" style="stroke:#181818;stroke-width:0.5;"/><text fill="#000000" font-family="sans-serif" font-size="14" lengthAdjust="spacing" textLength="110" x="643.0149" y="173.2774">Ajouter absences</text></g><g id="elem_Consulter l'historique des absences du personnel "><ellipse cx="699.806" cy="78.9612" fill="#F1F1F1" rx="172.806" ry="36.9612" style="stroke:#181818;stroke-width:0.5;"/><text fill="#000000" font-family="sans-serif" font-size="14" lengthAdjust="spacing" textLength="312" x="541.806" y="82.6897">Consulter l'historique des absences du personnel</text></g><!--entity directeur--><g id="elem_directeur"><ellipse cx="79.5" cy="182.5" fill="#F1F1F1" rx="8" ry="8" style="stroke:#181818;stroke-width:0.5;"/><path d="M79.5,190.5 L79.5,217.5 M66.5,198.5 L92.5,198.5 M79.5,217.5 L66.5,232.5 M79.5,217.5 L92.5,232.5 " fill="none" style="stroke:#181818;stroke-width:0.5;"/><text fill="#000000" font-family="sans-serif" font-size="14" lengthAdjust="spacing" textLength="58" x="50.5" y="248.5332">Directeur</text></g><!--entity responsableFormation--><g id="elem_responsableFormation"><ellipse cx="79.5" cy="295.5" fill="#F1F1F1" rx="8" ry="8" style="stroke:#181818;stroke-width:0.5;"/><path d="M79.5,303.5 L79.5,330.5 M66.5,311.5 L92.5,311.5 M79.5,330.5 L66.5,345.5 M79.5,330.5 L92.5,345.5 " fill="none" style="stroke:#181818;stroke-width:0.5;"/><text fill="#000000" font-family="sans-serif" font-size="14" lengthAdjust="spacing" textLength="147" x="6" y="361.5332">ResponsableFormation</text></g><!--link directeur to Naviguer par ?tablissement--><g id="link_directeur_Naviguer par &#233;tablissement"><path d="M108.91,213 C135.49,213 176.85,213 215.94,213 " fill="none" id="directeur-Naviguer par &#233;tablissement" style="stroke:#181818;stroke-width:1.0;"/></g><!--link directeur to List des absences--><g id="link_directeur_List des absences"><path d="M108.91,224.27 C151.29,241.08 231.24,272.79 279.66,292 " fill="none" id="directeur-List des absences" style="stroke:#181818;stroke-width:1.0;"/></g><!--reverse link List des absences to Imprimer absentisment--><g id="link_List des absences_Imprimer absentisment"><path d="M339.9186,331.1329 C370.3986,369.3929 442.51,452.78 527,497 C555.08,511.69 588.57,520.88 618.5,526.61 " fill="none" id="List des absences-backto-Imprimer absentisment" style="stroke:#181818;stroke-width:1.0;stroke-dasharray:7.0,7.0;"/><polygon fill="#181818" points="336.18,326.44,338.6593,335.9717,339.2955,330.3507,344.9165,330.9869,336.18,326.44" style="stroke:#181818;stroke-width:1.0;"/><text fill="#000000" font-family="sans-serif" font-size="13" lengthAdjust="spacing" textLength="39" x="457" y="447.4951">extend</text></g><!--reverse link List des absences to importer des absences--><g id="link_List des absences_importer des absences"><path d="M353.411,328.794 C391.381,353.304 459.29,394.4 527,420 C558.07,431.75 593.7,440.55 624.45,446.78 " fill="none" id="List des absences-backto-importer des absences" style="stroke:#181818;stroke-width:1.0;stroke-dasharray:7.0,7.0;"/><polygon fill="#181818" points="348.37,325.54,353.7621,333.7817,352.5708,328.2517,358.1008,327.0603,348.37,325.54" style="stroke:#181818;stroke-width:1.0;"/><text fill="#000000" font-family="sans-serif" font-size="13" lengthAdjust="spacing" textLength="39" x="457" y="385.4951">extend</text></g><!--reverse link List des absences to Exporter des absences--><g id="link_List des absences_Exporter des absences"><path d="M388.4576,321.0458 C455.7976,334.2658 558.48,354.42 629.29,368.32 " fill="none" id="List des absences-backto-Exporter des absences" style="stroke:#181818;stroke-width:1.0;stroke-dasharray:7.0,7.0;"/><polygon fill="#181818" points="382.57,319.89,390.6309,325.5488,387.4763,320.8532,392.172,317.6987,382.57,319.89" style="stroke:#181818;stroke-width:1.0;"/><text fill="#000000" font-family="sans-serif" font-size="13" lengthAdjust="spacing" textLength="39" x="457" y="333.4951">extend</text></g><!--reverse link List des absences to Filter par ann?e--><g id="link_List des absences_Filter par ann&#233;e"><path d="M407.03,308 C472.99,308 560.32,308 624.88,308 " fill="none" id="List des absences-backto-Filter par ann&#233;e" style="stroke:#181818;stroke-width:1.0;stroke-dasharray:7.0,7.0;"/><polygon fill="#181818" points="401.03,308,410.03,312,406.03,308,410.03,304,401.03,308" style="stroke:#181818;stroke-width:1.0;"/><text fill="#000000" font-family="sans-serif" font-size="13" lengthAdjust="spacing" textLength="39" x="457" y="304.4951">extend</text></g><!--reverse link List des absences to Filter par motif--><g id="link_List des absences_Filter par motif"><path d="M390.1519,295.5294 C462.4119,282.2994 574.57,261.77 643.72,249.12 " fill="none" id="List des absences-backto-Filter par motif" style="stroke:#181818;stroke-width:1.0;stroke-dasharray:7.0,7.0;"/><polygon fill="#181818" points="384.25,296.61,393.8232,298.9237,389.1682,295.7095,392.3825,291.0545,384.25,296.61" style="stroke:#181818;stroke-width:1.0;"/><text fill="#000000" font-family="sans-serif" font-size="13" lengthAdjust="spacing" textLength="39" x="457" y="274.4951">extend</text></g><!--reverse link List des absences to Ajouter absences--><g id="link_List des absences_Ajouter absences"><path d="M359.7165,288.3781 C412.9265,260.7881 509.37,211.16 527,205 C561.28,193.03 600.85,184.41 633.39,178.61 " fill="none" id="List des absences-backto-Ajouter absences" style="stroke:#181818;stroke-width:1.0;stroke-dasharray:7.0,7.0;"/><polygon fill="#181818" points="354.39,291.14,364.2211,290.5482,358.8288,288.8384,360.5386,283.4462,354.39,291.14" style="stroke:#181818;stroke-width:1.0;"/><text fill="#000000" font-family="sans-serif" font-size="13" lengthAdjust="spacing" textLength="39" x="457" y="215.4951">extend</text></g><!--reverse link List des absences to Consulter l'historique des absences du personnel --><g id="link_List des absences_Consulter l'historique des absences du personnel "><path d="M371.4604,290.1831 C391.7004,281.3631 409.35,271.01 426,254 C447.13,232.4 437.4,216.81 456,193 C481.43,160.44 490.8,152.91 527,133 C545.51,122.82 566.22,114.25 586.68,107.15 " fill="none" id="List des absences-backto-Consulter l'historique des absences du personnel " style="stroke:#181818;stroke-width:1.0;stroke-dasharray:7.0,7.0;"/><polygon fill="#181818" points="365.96,292.58,375.8086,292.6516,370.5437,290.5826,372.6127,285.3177,365.96,292.58" style="stroke:#181818;stroke-width:1.0;"/><text fill="#000000" font-family="sans-serif" font-size="13" lengthAdjust="spacing" textLength="39" x="457" y="148.4951">extend</text></g><!--link responsableFormation to List des absences--><g id="link_responsableFormation_List des absences"><path d="M153.01,320.55 C181.92,318.38 215.21,315.88 244.42,313.68 " fill="none" id="responsableFormation-List des absences" style="stroke:#181818;stroke-width:1.0;"/></g><!--SRC=[dL9BJWCn3Dtd5DvH5fq383OLK0a9iU02LJhZfgQJ3xQ3AY4Er7FqOcH6mwTYG0EBBF9-TXotk57G24nkgz0GOwqKWp76rXePhdi4CuELWIwNWNn0IJ68NRUuZEnjv-nqF88Rasozimx1eNJ0AY5B307RAktSQh4M33KAl1W3dvLWFeVPlNqcbv4XMORZGKimYQ37eEVVn7SavI4bo0w9dMG41RYiAfZT-iJaItPFA4cV2XU0UyNG_Eebdo9hyPwIaxmt-_zxbzJgC0qRml60V_VvgBIPQ5iyngpl4vhUvLLPWTmNRC-sHHIPdZAUIA79yB46y2Mt18yjqSyVR5xBUGC0]--></g></svg>